<svg width="16" height="18" viewBox="0 0 16 18" fill="none" xmlns="http://www.w3.org/2000/svg">
<path d="M0 9.02088C0 6.80742 0 4.59397 0 2.37454C0.00607533 1.27676 0.601458 0.417633 1.59174 0.12529C1.86513 0.0477295 2.15674 0.0119324 2.44228 0.00596619C4.63548 0 6.82868 0.00596619 9.02795 0C9.29526 0 9.50182 0.0954591 9.69016 0.280411C11.3609 1.92708 13.0377 3.57375 14.7145 5.22042C14.8906 5.39344 15.0061 5.57242 15.0061 5.823C15 9.11037 15.0061 12.4037 15 15.6911C15 16.8784 14.2224 17.7852 13.0498 17.9821C12.9526 18 12.8554 18 12.7582 18C9.25881 18 5.75942 18 2.25395 18C1.05711 18 0.0243013 17.0275 0.018226 15.8522C-0.00607533 13.5731 0.00607533 11.3 0 9.02088C0.00607533 9.02088 0 9.02088 0 9.02088ZM8.43864 1.36029C8.39004 1.35433 8.35966 1.34836 8.32928 1.34836C6.3305 1.34836 4.33171 1.34239 2.339 1.34836C1.73755 1.34836 1.36695 1.7302 1.36695 2.33278C1.36695 6.77759 1.36695 11.2224 1.36695 15.6672C1.36695 16.3056 1.73755 16.6516 2.39368 16.6516C5.78372 16.6516 9.16768 16.6397 12.5577 16.6576C13.226 16.6636 13.6452 16.24 13.6391 15.5956C13.627 12.6245 13.633 9.65926 13.633 6.6881C13.633 6.61054 13.633 6.53298 13.633 6.43752C12.6792 6.43752 11.7618 6.43752 10.8445 6.43752C9.41677 6.43752 8.44471 5.48293 8.43864 4.07491C8.43864 3.18595 8.43864 2.28505 8.43864 1.36029ZM12.5699 5.10109C11.6525 4.2002 10.729 3.29334 9.81774 2.39841C9.81774 3.01293 9.79951 3.65728 9.82382 4.30162C9.84204 4.73716 10.2248 5.08916 10.6622 5.09513C11.3062 5.11303 11.9502 5.10109 12.5699 5.10109Z" fill="#FF005C"/>
<path d="M6.03891 11.7057C6.03891 11.1269 6.03891 10.5423 6.03891 9.96354C6.03891 9.69506 6.11789 9.57574 6.39128 9.56977C6.93199 9.5638 7.48484 9.55187 8.01947 9.62943C8.59663 9.70699 8.96115 10.1664 8.97938 10.7391C8.9976 11.3596 9.00368 11.9741 8.98545 12.5946C8.96115 13.3762 8.49942 13.8356 7.70355 13.8714C7.27828 13.8953 6.85301 13.8833 6.42773 13.8774C6.14219 13.8714 6.03891 13.7521 6.03284 13.4717C6.03891 12.881 6.03891 12.2904 6.03891 11.7057ZM6.99274 10.3752C6.99274 11.2761 6.99274 12.1651 6.99274 13.0719C7.1507 13.0719 7.29043 13.0719 7.43624 13.0719C7.87366 13.0719 8.05592 12.8989 8.062 12.4634C8.06807 12.0696 8.04985 11.6758 8.06807 11.2821C8.10453 10.3334 7.81291 10.3334 7.05349 10.3573C7.03527 10.3573 7.02312 10.3633 6.99274 10.3752Z" fill="#FF005C"/>
<path d="M3.548 12.3083C3.548 12.7199 3.548 13.0958 3.548 13.4776C3.548 13.758 3.40219 13.8774 3.07412 13.8774C2.75213 13.8774 2.60632 13.7521 2.60632 13.4717C2.60632 12.3023 2.60632 11.1329 2.60632 9.96354C2.60632 9.6712 2.69745 9.55187 2.98907 9.55187C3.4994 9.54591 4.00973 9.53994 4.51398 9.5817C5.18834 9.64136 5.60146 10.0888 5.60754 10.757C5.61361 11.0494 5.58324 11.3596 5.47388 11.6221C5.2734 12.1114 4.81167 12.2725 4.31349 12.3023C4.07048 12.3202 3.82747 12.3083 3.548 12.3083ZM3.56015 11.5983C3.80316 11.5983 4.03403 11.6102 4.25881 11.5983C4.45323 11.5863 4.60511 11.479 4.63549 11.294C4.67194 11.0971 4.67801 10.8764 4.62941 10.6795C4.60511 10.5661 4.4593 10.4289 4.34387 10.3991C4.09478 10.3454 3.82747 10.3513 3.55408 10.3334C3.56015 10.7809 3.56015 11.1747 3.56015 11.5983Z" fill="#FF005C"/>
<path d="M10.5468 10.3513C10.5468 10.7033 10.5468 11.0195 10.5468 11.3656C10.8263 11.3656 11.0997 11.3656 11.367 11.3656C11.6161 11.3656 11.7254 11.4789 11.7254 11.7176C11.7254 11.9503 11.61 12.0636 11.3548 12.0636C11.0875 12.0636 10.8263 12.0636 10.5347 12.0636C10.5347 12.529 10.5347 12.9705 10.5347 13.418C10.5347 13.585 10.5407 13.7521 10.3403 13.8237C10.1155 13.9012 9.88461 13.9131 9.69627 13.758C9.63552 13.7043 9.59299 13.591 9.59299 13.5015C9.58691 12.3023 9.58691 11.1031 9.58691 9.8979C9.58691 9.70102 9.69019 9.59363 9.87853 9.55783C9.95143 9.5459 10.0304 9.53397 10.1033 9.53397C10.723 9.53397 11.3488 9.53397 11.9684 9.53397C12.2418 9.53397 12.3694 9.66522 12.3755 9.9337C12.3816 10.2201 12.254 10.3394 11.9684 10.3394C11.5067 10.3513 11.0389 10.3513 10.5468 10.3513Z" fill="#FF005C"/>
</svg>
